# Blender 5.0.1
# www.blender.org
mtllib Container_3.mtl
o Cube
v 3.266016 1.430274 -5.673869
v -3.266016 1.430274 -5.673869
v -5.000000 -0.645804 -5.000000
v -5.000000 2.014746 -5.000000
v 2.914675 1.430274 -5.221953
v -2.914675 1.430274 -5.221953
v 5.000000 -0.645804 -5.000000
v 5.000000 2.014746 -5.000000
v 1.809113 5.115424 -5.427339
v -4.689481 6.242600 -4.689481
v 4.689481 6.242600 -4.689481
v -1.809113 5.115424 -5.427339
v 1.891290 3.976061 -5.673869
v -5.673869 3.976061 -5.673869
v 5.673869 3.976061 -5.673869
v -1.891290 3.976061 -5.673869
v 1.563160 6.242600 -4.689481
v -5.427339 5.115424 -5.427339
v 5.427339 5.115424 -5.427339
v -1.563160 6.242600 -4.689481
v 1.666667 2.014746 -5.000000
v -5.063503 1.430274 -5.221953
v 5.063503 1.430274 -5.221953
v -1.666667 2.014746 -5.000000
v -1.666667 -0.645804 -5.000000
v 5.673869 1.430274 -5.673869
v 1.666667 -0.645804 -5.000000
v -5.673869 1.430274 -5.673869
v -5.000000 -0.645804 0.000000
v -5.000000 2.014746 0.000000
v 5.000000 -0.645804 0.000000
v 5.000000 2.014746 0.000000
v -4.689481 6.242600 0.000000
v 4.689481 6.242600 0.000000
v -5.673869 3.976061 0.000000
v 5.673869 3.976061 0.000000
v -5.427339 5.115424 0.000000
v 5.427339 5.115424 0.000000
v -5.063503 1.430274 0.000000
v 5.063503 1.430274 0.000000
v -5.673869 1.430274 0.000000
v 5.673869 1.430274 0.000000
v -1.563160 6.242600 0.000000
v 1.563160 6.242600 0.000000
v 1.666667 -0.645804 0.000000
v -1.666667 -0.645804 0.000000
v 1.047103 -0.577733 -5.307731
v 1.173323 -0.577733 -5.588092
v -1.173322 -0.577733 -5.588092
v -1.047102 -0.577733 -5.307731
v 3.266016 1.430274 5.673869
v -3.266016 1.430274 5.673869
v -5.000000 -0.645804 5.000000
v -5.000000 2.014746 5.000000
v 2.914675 1.430274 5.221953
v -2.914675 1.430274 5.221953
v 5.000000 -0.645804 5.000000
v 5.000000 2.014746 5.000000
v 1.809113 5.115424 5.427339
v -4.689481 6.242600 4.689481
v 4.689481 6.242600 4.689481
v -1.809113 5.115424 5.427339
v 1.891290 3.976061 5.673869
v -5.673869 3.976061 5.673869
v 5.673869 3.976061 5.673869
v -1.891290 3.976061 5.673869
v 1.563160 6.242600 4.689481
v -5.427339 5.115424 5.427339
v 5.427339 5.115424 5.427339
v -1.563160 6.242600 4.689481
v 1.666667 2.014746 5.000000
v -5.063503 1.430274 5.221953
v 5.063503 1.430274 5.221953
v -1.666667 2.014746 5.000000
v -1.666667 -0.645804 5.000000
v 5.673869 1.430274 5.673869
v 1.666667 -0.645804 5.000000
v -5.673869 1.430274 5.673869
v 1.047103 -0.577733 5.307731
v 1.173323 -0.577733 5.588092
v -1.173322 -0.577733 5.588092
v -1.047102 -0.577733 5.307731
vn -1.0000 -0.0000 -0.0000
vn -0.0000 -0.0000 -1.0000
vn -0.0000 -0.0427 -0.9991
vn 0.6458 -0.6368 0.4212
vn -0.0000 -1.0000 -0.0000
vn -0.0000 0.2115 -0.9774
vn -0.0000 0.5477 -0.8367
vn 0.9774 0.2115 -0.0000
vn -0.0000 -0.3550 0.9349
vn -0.9941 -0.1080 -0.0000
vn -0.0000 -0.0427 0.9991
vn -0.8367 0.5477 -0.0000
vn -0.0000 1.0000 -0.0000
vn 0.8367 0.5477 -0.0000
vn 0.9941 -0.1080 -0.0000
vn -0.9774 0.2115 -0.0000
vn 1.0000 -0.0000 -0.0000
vn -0.6458 -0.6368 0.4212
vn -0.0000 -0.0000 1.0000
vn 0.6458 -0.6368 -0.4212
vn -0.0000 0.2115 0.9774
vn -0.0000 0.5477 0.8367
vn -0.0000 -0.3550 -0.9349
vn -0.6458 -0.6368 -0.4212
vt 0.781637 0.217416
vt 0.729481 0.206971
vt 0.780712 0.124118
vt 0.798896 0.162808
vt 0.880570 0.174843
vt 0.900581 0.137589
vt 0.942324 0.177418
vt 0.910343 0.191116
vt 0.843131 0.119949
vt 0.838686 0.163295
vt 1.073963 0.837766
vt 0.684251 0.837445
vt 0.809203 0.717638
vt 0.949208 0.717753
vt 0.092542 0.959925
vt 0.088424 0.963307
vt 0.074508 0.948916
vt 0.075784 0.948301
vt 0.069085 0.942779
vt 0.069501 0.941469
vt 0.095270 0.935415
vt 0.076001 0.920901
vt 0.081262 0.916453
vt 0.098105 0.929069
vt 0.100895 0.922021
vt 0.112954 0.929473
vt 0.113662 0.936056
vt 0.076501 0.901990
vt 0.087297 0.911642
vt 0.069754 0.903156
vt 0.063545 0.904363
vt 0.053464 0.931022
vt 0.048555 0.908119
vt 0.144155 0.924394
vt 0.114168 0.942075
vt 0.137124 0.919056
vt 0.116219 0.972854
vt 0.078778 0.963730
vt 0.114706 0.964005
vt 0.055161 0.945583
vt 0.051803 0.935962
vt 0.182446 0.953526
vt 0.175269 0.948058
vt 0.087296 0.881169
vt 0.080109 0.875716
vt 0.865393 0.234190
vt 0.824193 0.225939
vt 0.116142 0.957143
vt 0.169564 0.943711
vt 0.005810 0.903627
vt 0.005810 0.588568
vt 0.332905 0.588568
vt 0.332905 0.903626
vt 0.042338 0.911597
vt 0.073070 0.870365
vt 0.046687 0.850246
vt 0.032968 0.912998
vt 0.991820 0.989585
vt 0.766144 0.989399
vt 0.040634 0.845601
vt 0.129963 0.913622
vt 0.032968 0.839717
vt 0.005810 0.273509
vt 0.332905 0.273509
vt 0.005810 -0.041550
vt 0.332905 -0.041550
vt 0.909057 0.242934
vt 0.942324 0.249597
vt 0.776535 0.274459
vt 0.744855 0.303163
vt 0.856545 0.294805
vt 0.890289 0.291252
vt 0.914529 0.316209
vt 0.860667 0.336892
vt 0.813444 0.289332
vt 0.800855 0.331047
vt 0.682785 0.838531
vt 0.808251 0.717675
vt 0.949144 0.717466
vt 1.074968 0.837950
vt 0.164691 0.864996
vt 0.149241 0.851985
vt 0.149422 0.850670
vt 0.166843 0.860139
vt 0.140946 0.848585
vt 0.142073 0.847767
vt 0.141627 0.874359
vt 0.136273 0.878669
vt 0.119426 0.865887
vt 0.122352 0.859569
vt 0.130184 0.883285
vt 0.147203 0.891858
vt 0.140657 0.892946
vt 0.104373 0.865203
vt 0.103694 0.858433
vt 0.116462 0.872949
vt 0.103212 0.852185
vt 0.102956 0.837130
vt 0.126229 0.835836
vt 0.153152 0.890731
vt 0.183593 0.884407
vt 0.174615 0.885333
vt 0.164603 0.850904
vt 0.130500 0.832922
vt 0.140741 0.833488
vt 0.168352 0.888570
vt 0.659999 0.903626
vt 0.659999 0.588568
vt 0.104670 0.830286
vt 0.103548 0.820976
vt 0.765550 0.991258
vt 0.992656 0.990922
vt 0.659999 0.273509
vt 0.659999 -0.041550
s 0
usemtl Tex_main
f 29/1/1 30/2/1 4/3/1 3/4/1
f 27/5/2 21/6/2 8/7/2 7/8/2
f 3/4/2 4/3/2 24/9/2 25/10/2
f 2/11/3 1/12/3 48/13/3 49/14/3
f 1/15/4 5/16/4 47/17/4 48/18/4
f 47/17/5 50/19/5 49/20/5 48/18/5
f 13/21/6 16/22/6 12/23/6 9/24/6
f 17/25/7 11/26/7 19/27/7 9/24/7
f 10/28/7 20/29/7 12/23/7 18/30/7
f 14/31/2 16/22/2 2/32/2 28/33/2
f 36/34/8 15/35/8 19/27/8 38/36/8
f 8/37/9 21/38/9 5/16/9 23/39/9
f 21/38/9 24/40/9 6/41/9 5/16/9
f 16/22/6 14/31/6 18/30/6 12/23/6
f 25/10/2 24/9/2 21/6/2 27/5/2
f 32/42/10 8/37/10 23/39/10 40/43/10
f 5/16/11 6/41/11 50/19/11 47/17/11
f 33/44/12 10/28/12 18/30/12 37/45/12
f 25/10/5 27/5/5 45/46/5 46/47/5
f 40/43/5 23/39/5 26/48/5 42/49/5
f 11/50/13 17/51/13 44/52/13 34/53/13
f 6/41/5 22/54/5 28/33/5 2/32/5
f 35/55/1 14/31/1 28/33/1 41/56/1
f 24/40/9 4/57/9 22/54/9 6/41/9
f 23/39/5 5/16/5 1/15/5 26/48/5
f 13/21/2 15/35/2 26/48/2 1/15/2
f 16/58/2 13/59/2 1/12/2 2/11/2
f 3/4/5 25/10/5 46/47/5 29/1/5
f 22/54/5 39/60/5 41/56/5 28/33/5
f 15/35/6 13/21/6 9/24/6 19/27/6
f 11/26/14 34/61/14 38/36/14 19/27/14
f 20/29/7 17/25/7 9/24/7 12/23/7
f 4/57/15 30/62/15 39/60/15 22/54/15
f 14/31/16 35/55/16 37/45/16 18/30/16
f 17/51/13 20/63/13 43/64/13 44/52/13
f 15/35/17 36/34/17 42/49/17 26/48/17
f 20/63/13 10/65/13 33/66/13 43/64/13
f 27/5/5 7/8/5 31/67/5 45/46/5
f 7/8/17 8/7/17 32/68/17 31/67/17
f 6/41/18 2/32/18 49/20/18 50/19/18
f 29/1/1 53/69/1 54/70/1 30/2/1
f 77/71/19 57/72/19 58/73/19 71/74/19
f 53/69/19 75/75/19 74/76/19 54/70/19
f 52/77/11 81/78/11 80/79/11 51/80/11
f 51/81/20 80/82/20 79/83/20 55/84/20
f 79/83/5 80/82/5 81/85/5 82/86/5
f 63/87/21 59/88/21 62/89/21 66/90/21
f 67/91/22 59/88/22 69/92/22 61/93/22
f 60/94/22 68/95/22 62/89/22 70/96/22
f 64/97/19 78/98/19 52/99/19 66/90/19
f 36/34/8 38/36/8 69/92/8 65/100/8
f 58/101/23 73/102/23 55/84/23 71/103/23
f 71/103/23 55/84/23 56/104/23 74/105/23
f 66/90/21 62/89/21 68/95/21 64/97/21
f 75/75/19 77/71/19 71/74/19 74/76/19
f 32/42/10 40/43/10 73/102/10 58/101/10
f 55/84/3 79/83/3 82/86/3 56/104/3
f 33/44/12 37/45/12 68/95/12 60/94/12
f 75/75/5 46/47/5 45/46/5 77/71/5
f 40/43/5 42/49/5 76/106/5 73/102/5
f 61/107/13 34/53/13 44/52/13 67/108/13
f 56/104/5 52/99/5 78/98/5 72/109/5
f 35/55/1 41/56/1 78/98/1 64/97/1
f 74/105/23 56/104/23 72/109/23 54/110/23
f 73/102/5 76/106/5 51/81/5 55/84/5
f 63/87/19 51/81/19 76/106/19 65/100/19
f 66/111/19 52/77/19 51/80/19 63/112/19
f 53/69/5 29/1/5 46/47/5 75/75/5
f 72/109/5 78/98/5 41/56/5 39/60/5
f 65/100/21 69/92/21 59/88/21 63/87/21
f 61/93/14 69/92/14 38/36/14 34/61/14
f 70/96/22 62/89/22 59/88/22 67/91/22
f 54/110/15 72/109/15 39/60/15 30/62/15
f 64/97/16 68/95/16 37/45/16 35/55/16
f 67/108/13 44/52/13 43/64/13 70/113/13
f 65/100/17 76/106/17 42/49/17 36/34/17
f 70/113/13 43/64/13 33/66/13 60/114/13
f 77/71/5 45/46/5 31/67/5 57/72/5
f 57/72/17 31/67/17 32/68/17 58/73/17
f 56/104/24 82/86/24 81/85/24 52/99/24
